<mxfile host="65bd71144e">
    <diagram id="9nf3-f594a2vJgTNQUf7" name="Page-1">
        <mxGraphModel dx="1055" dy="787" grid="1" gridSize="10" guides="1" tooltips="1" connect="1" arrows="1" fold="1" page="1" pageScale="1" pageWidth="827" pageHeight="1169" math="0" shadow="0">
            <root>
                <mxCell id="0"/>
                <mxCell id="1" parent="0"/>
                <mxCell id="2" value="" style="shape=umlLifeline;participant=umlActor;perimeter=lifelinePerimeter;whiteSpace=wrap;html=1;container=1;collapsible=0;recursiveResize=0;verticalAlign=top;spacingTop=36;outlineConnect=0;rounded=0;" vertex="1" parent="1">
                    <mxGeometry x="187.5" y="170" width="20" height="415" as="geometry"/>
                </mxCell>
                <mxCell id="3" value="System" style="shape=umlLifeline;perimeter=lifelinePerimeter;whiteSpace=wrap;html=1;container=1;collapsible=0;recursiveResize=0;outlineConnect=0;rounded=0;" vertex="1" parent="1">
                    <mxGeometry x="480" y="180" width="100" height="405" as="geometry"/>
                </mxCell>
                <mxCell id="4" value="Utilisateur" style="shape=umlActor;verticalLabelPosition=bottom;verticalAlign=top;html=1;rounded=0;" vertex="1" parent="1">
                    <mxGeometry x="187.5" y="585" width="17.5" height="40" as="geometry"/>
                </mxCell>
                <mxCell id="5" value="Utilisateur" style="text;html=1;align=center;verticalAlign=middle;resizable=0;points=[];autosize=1;rounded=0;" vertex="1" parent="1">
                    <mxGeometry x="160" y="140" width="80" height="30" as="geometry"/>
                </mxCell>
                <mxCell id="6" value="ref" style="shape=umlFrame;whiteSpace=wrap;html=1;rounded=0;" vertex="1" parent="1">
                    <mxGeometry x="190" y="225" width="350" height="40" as="geometry"/>
                </mxCell>
                <mxCell id="7" value="Authentification" style="text;align=center;fontStyle=1;verticalAlign=middle;spacingLeft=3;spacingRight=3;rotatable=0;points=[[0,0.5],[1,0.5]];portConstraint=eastwest;rounded=0;" vertex="1" parent="1">
                    <mxGeometry x="325" y="232" width="80" height="26" as="geometry"/>
                </mxCell>
                <mxCell id="8" value="Demande d'accès à la page" style="html=1;verticalAlign=bottom;endArrow=block;rounded=0;labelBackgroundColor=#F4F1DE;fontColor=#393C56;" edge="1" parent="1" target="3">
                    <mxGeometry width="80" relative="1" as="geometry">
                        <mxPoint x="200" y="305" as="sourcePoint"/>
                        <mxPoint x="280" y="305" as="targetPoint"/>
                    </mxGeometry>
                </mxCell>
                <mxCell id="9" value="alt" style="shape=umlFrame;whiteSpace=wrap;html=1;rounded=0;" vertex="1" parent="1">
                    <mxGeometry x="180" y="355" width="370" height="200" as="geometry"/>
                </mxCell>
                <mxCell id="10" value="[Validation création commentaire]" style="text;align=center;fontStyle=1;verticalAlign=middle;spacingLeft=3;spacingRight=3;rotatable=0;points=[[0,0.5],[1,0.5]];portConstraint=eastwest;rounded=0;" vertex="1" parent="1">
                    <mxGeometry x="325" y="355" width="80" height="26" as="geometry"/>
                </mxCell>
                <mxCell id="11" value="Remplir et soumettre le commentaire" style="html=1;verticalAlign=bottom;endArrow=block;rounded=0;labelBackgroundColor=#F4F1DE;fontColor=#393C56;" edge="1" parent="1">
                    <mxGeometry width="80" relative="1" as="geometry">
                        <mxPoint x="200.25" y="345" as="sourcePoint"/>
                        <mxPoint x="529.75" y="345" as="targetPoint"/>
                    </mxGeometry>
                </mxCell>
                <mxCell id="12" value="Rend le commentaire visible" style="html=1;verticalAlign=bottom;endArrow=open;dashed=1;endSize=8;rounded=0;labelBackgroundColor=#F4F1DE;fontColor=#393C56;" edge="1" parent="1" source="3" target="2">
                    <mxGeometry relative="1" as="geometry">
                        <mxPoint x="530" y="515" as="sourcePoint"/>
                        <mxPoint x="450" y="515" as="targetPoint"/>
                        <Array as="points">
                            <mxPoint x="340" y="425"/>
                        </Array>
                    </mxGeometry>
                </mxCell>
                <mxCell id="13" value="" style="line;strokeWidth=1;align=left;verticalAlign=middle;spacingTop=-1;spacingLeft=3;spacingRight=3;rotatable=0;labelPosition=right;points=[];portConstraint=eastwest;labelBackgroundColor=#F4F1DE;rounded=0;" vertex="1" parent="1">
                    <mxGeometry x="177.5" y="445" width="372.5" height="8" as="geometry"/>
                </mxCell>
                <mxCell id="14" value="[Erreur création commentaire]" style="text;align=center;fontStyle=1;verticalAlign=middle;spacingLeft=3;spacingRight=3;rotatable=0;points=[[0,0.5],[1,0.5]];portConstraint=eastwest;rounded=0;" vertex="1" parent="1">
                    <mxGeometry x="320" y="445" width="80" height="26" as="geometry"/>
                </mxCell>
                <mxCell id="15" value="loop" style="shape=umlFrame;whiteSpace=wrap;html=1;rounded=0;" vertex="1" parent="1">
                    <mxGeometry x="190" y="471" width="350" height="74" as="geometry"/>
                </mxCell>
                <mxCell id="16" value="[Tant qu'il y a une erreur]" style="text;align=center;fontStyle=1;verticalAlign=middle;spacingLeft=3;spacingRight=3;rotatable=0;points=[[0,0.5],[1,0.5]];portConstraint=eastwest;rounded=0;" vertex="1" parent="1">
                    <mxGeometry x="320" y="471" width="80" height="26" as="geometry"/>
                </mxCell>
                <mxCell id="17" value="Renvoie un message d'erreur" style="html=1;verticalAlign=bottom;endArrow=open;dashed=1;endSize=8;rounded=0;labelBackgroundColor=#F4F1DE;fontColor=#393C56;" edge="1" parent="1">
                    <mxGeometry relative="1" as="geometry">
                        <mxPoint x="531.25" y="525" as="sourcePoint"/>
                        <mxPoint x="198.75" y="525" as="targetPoint"/>
                        <Array as="points">
                            <mxPoint x="341.75" y="525"/>
                        </Array>
                    </mxGeometry>
                </mxCell>
                <mxCell id="18" value="System" style="html=1;rounded=0;" vertex="1" parent="1">
                    <mxGeometry x="480" y="585" width="100" height="40" as="geometry"/>
                </mxCell>
            </root>
        </mxGraphModel>
    </diagram>
</mxfile>